<?xml version="1.0" encoding="UTF-8" standalone="no"?>
<!-- Created with Inkscape (http://www.inkscape.org/) -->

<svg
   width="256"
   height="256"
   viewBox="0 0 67.733331 67.733333"
   version="1.1"
   id="svg1"
   sodipodi:docname="logo.svg"
   inkscape:version="1.3.2 (091e20ef0f, 2023-11-25, custom)"
   inkscape:export-filename="logo_128.png"
   inkscape:export-xdpi="128"
   inkscape:export-ydpi="128"
   xmlns:inkscape="http://www.inkscape.org/namespaces/inkscape"
   xmlns:sodipodi="http://sodipodi.sourceforge.net/DTD/sodipodi-0.dtd"
   xmlns="http://www.w3.org/2000/svg"
   xmlns:svg="http://www.w3.org/2000/svg">
  <sodipodi:namedview
     id="namedview1"
     pagecolor="#ffffff"
     bordercolor="#000000"
     borderopacity="0.25"
     inkscape:showpageshadow="2"
     inkscape:pageopacity="0.0"
     inkscape:pagecheckerboard="true"
     inkscape:deskcolor="#d1d1d1"
     inkscape:document-units="mm"
     showguides="true"
     inkscape:zoom="4.0000001"
     inkscape:cx="98.999999"
     inkscape:cy="125.75"
     inkscape:window-width="2494"
     inkscape:window-height="1380"
     inkscape:window-x="2626"
     inkscape:window-y="32"
     inkscape:window-maximized="1"
     inkscape:current-layer="layer1" />
  <defs
     id="defs1">
    <filter
       style="color-interpolation-filters:sRGB"
       inkscape:label="Drop Shadow"
       id="filter21"
       x="-0.060067013"
       y="-0.047244094"
       width="1.1701899"
       height="1.1338583">
      <feFlood
         result="flood"
         in="SourceGraphic"
         flood-opacity="0.498039"
         flood-color="rgb(0,0,0)"
         id="feFlood20" />
      <feGaussianBlur
         result="blur"
         in="SourceGraphic"
         stdDeviation="0.500000"
         id="feGaussianBlur20" />
      <feOffset
         result="offset"
         in="blur"
         dx="1.000000"
         dy="1.000000"
         id="feOffset20" />
      <feComposite
         result="comp1"
         operator="in"
         in="flood"
         in2="offset"
         id="feComposite20" />
      <feComposite
         result="comp2"
         operator="over"
         in="SourceGraphic"
         in2="comp1"
         id="feComposite21" />
    </filter>
  </defs>
  <g
     inkscape:label="Layer 1"
     inkscape:groupmode="layer"
     id="layer1">
    <g
       id="g1"
       transform="matrix(2.6864409,0,0,2.6864409,-0.25113266,-0.25113273)">
      <rect
         style="fill:#ffffff;fill-opacity:1;stroke-width:0;stroke-linecap:round;stroke-linejoin:round"
         id="rect1"
         width="15.167211"
         height="19.140598"
         x="4.6469388"
         y="2.6671963"
         ry="1.2072538" />
      <path
         id="text5-3"
         style="font-weight:800;font-size:23.3837px;line-height:1.1;font-family:'Open Sans';-inkscape-font-specification:'Open Sans, Ultra-Bold';text-align:end;text-anchor:end;opacity:1;stroke:none;stroke-width:10.4918;stroke-linecap:round;filter:url(#filter21)"
         d="M 8.1137076,0 C 5.2387237,0 2.7111561,2.1487009 2.7111561,4.9870539 v 9.6289411 5.794786 c 0,2.838353 2.5273022,4.989219 5.4025515,4.989219 h 9.1685394 c 2.792697,0 5.402552,-2.076009 5.402552,-4.989219 v -6.430204 c 0.0091,-0.167838 0,-8.9935231 0,-8.9935231 C 22.684799,2.1489981 20.15723,0 17.282247,0 Z m 0,3.1324628 h 9.1685394 c 1.375834,0 2.270088,0.9014072 2.270088,1.8545911 l -0.0041,9.2575571 c -0.0041,1.223519 -0.135503,2.10019 -0.398481,2.793498 -0.25501,0.693307 -0.589729,1.039826 -1.004119,1.039826 -0.390484,0 -0.585376,-0.342587 -0.585376,-1.027924 l 0.02381,-1.123683 0.251029,-5.044401 c -0.645492,-0.223134 -1.358736,-0.39836 -2.139703,-0.525865 -0.772999,-0.135474 -1.482311,-0.203421 -2.127804,-0.203421 -1.227233,0 -2.307204,0.235307 -3.239582,0.705481 -0.9323784,0.462205 -1.6456238,1.12717 -2.1397048,1.995796 -0.4940809,0.860656 -0.7411872,1.853015 -0.7411872,2.97665 0,1.530058 0.3908666,2.721242 1.1718332,3.573929 0.7809666,0.852689 1.9002698,1.279496 3.3586058,1.279496 1.219264,0 2.255429,-0.474548 3.108117,-1.422863 h 0.179075 c 0.286885,0.446265 0.685618,0.79726 1.195638,1.052268 0.510019,0.247041 1.079503,0.370595 1.709059,0.370595 0.491118,0 0.951202,-0.0898 1.382287,-0.262392 -0.007,1.000554 -0.974216,1.845935 -2.269548,1.845935 H 8.1137076 c -1.375571,0 -2.2695477,-0.903867 -2.2695477,-1.856755 V 14.615995 4.9870539 c 0,-0.9528867 0.8937113,-1.8545911 2.2695477,-1.8545911 z m 5.5015564,9.6381382 c 0.223133,0 0.49438,0.0236 0.813141,0.07141 l -0.119563,1.864871 c -0.08766,1.259109 -0.275226,2.135781 -0.562113,2.629861 -0.286884,0.494082 -0.73675,0.741188 -1.350366,0.741188 -0.478144,0 -0.865077,-0.179159 -1.159931,-0.537766 -0.286887,-0.358608 -0.430106,-0.9365 -0.430106,-1.733405 0,-0.956285 0.25104,-1.701538 0.75309,-2.235464 0.510019,-0.533926 1.195191,-0.800699 2.055848,-0.800699 z"
         sodipodi:nodetypes="sscsssscssssssccsccccsccssscccscssscsssccsscscss"
         transform="matrix(0.87613924,0,0,0.87613924,1.1349623,1.1349614)" />
    </g>
  </g>
</svg>
